<svg width="50" height="50" viewBox="0 0 50 50" fill="none" xmlns="http://www.w3.org/2000/svg">
<path d="M33.9103 23.0944V32.5336C33.5595 32.9976 33.0105 33.5069 32.2636 34.0615C31.5279 34.6047 30.5489 35.0744 29.3265 35.4706C28.1042 35.8667 26.5819 36.0648 24.7597 36.0648C23.2092 36.0648 21.7888 35.8044 20.4985 35.2838C19.2083 34.7519 18.0934 33.9766 17.1541 32.958C16.226 31.9394 15.5073 30.7 14.998 29.24C14.4887 27.7687 14.234 26.0936 14.234 24.2148V22.5002C14.234 20.6327 14.466 18.969 14.9301 17.5089C15.4054 16.0376 16.0845 14.7926 16.9673 13.774C17.8501 12.7554 18.914 11.9858 20.159 11.4651C21.4153 10.9332 22.8357 10.6672 24.4202 10.6672C26.4461 10.6672 28.1212 11.0068 29.4454 11.6858C30.7809 12.3536 31.8108 13.2817 32.5352 14.4701C33.2595 15.6584 33.7179 17.0166 33.9103 18.5445H29.734C29.5982 17.6844 29.3322 16.9147 28.9361 16.2357C28.5513 15.5566 27.9967 15.0246 27.2723 14.6398C26.5593 14.2437 25.6312 14.0456 24.4881 14.0456C23.5034 14.0456 22.6376 14.2324 21.8906 14.6059C21.1436 14.9794 20.5212 15.5283 20.0232 16.2526C19.5365 16.977 19.1687 17.8598 18.9197 18.901C18.6707 19.9423 18.5462 21.1307 18.5462 22.4662V24.2148C18.5462 25.573 18.6876 26.7784 18.9706 27.8309C19.2649 28.8835 19.6836 29.772 20.2269 30.4963C20.7815 31.2207 21.4549 31.7696 22.2471 32.1431C23.0394 32.5053 23.9335 32.6863 24.9295 32.6863C25.9029 32.6863 26.7008 32.6071 27.3233 32.4487C27.9457 32.2789 28.4381 32.0808 28.8003 31.8545C29.1737 31.6168 29.4624 31.3904 29.6661 31.1754V26.269H24.5221V23.0944H33.9103Z" fill="white"/>
<circle cx="24.8349" cy="24.8349" r="21.7305" stroke="#F9A779" stroke-width="6.20872"/>
</svg>
